<svg width="53" height="71" viewBox="0 0 53 71" fill="none" xmlns="http://www.w3.org/2000/svg">
<path d="M52.964 61.3218L49.114 19.7691C49.0054 18.6242 48.0282 17.75 46.8565 17.75H40.0704V13.3125C40.0704 9.74475 38.6635 6.39444 36.1074 3.88725C33.5513 1.38006 30.1356 0 26.4983 0C19.0156 0 12.9262 5.97287 12.9262 13.3125V17.75H6.14013C4.9684 17.75 3.99121 18.6242 3.88716 19.7691L0.0371996 61.3218C-0.193527 63.7979 0.656994 66.2741 2.36708 68.1112C4.07717 69.9483 6.5111 71 9.04909 71H43.9521C46.4901 71 48.924 69.9483 50.6341 68.1112C52.3442 66.2741 53.1902 63.7979 52.964 61.3218ZM17.4502 13.3125C17.4502 8.41794 21.5083 4.4375 26.4983 4.4375C28.9277 4.4375 31.2033 5.35606 32.9089 7.02456C34.6144 8.69306 35.5464 10.9296 35.5464 13.3125V17.75H17.4502V13.3125ZM47.2908 65.1203C46.4222 66.0478 45.2369 66.5625 43.9475 66.5625H9.04909C7.76426 66.5625 6.57444 66.0478 5.71035 65.1159C4.84173 64.184 4.43004 62.9814 4.54767 61.7212L8.20762 22.1875H12.9262V28.8438C12.9262 30.0685 13.9396 31.0625 15.1882 31.0625C16.4368 31.0625 17.4502 30.0685 17.4502 28.8438V22.1875H35.5464V28.8438C35.5464 30.0685 36.5598 31.0625 37.8084 31.0625C39.0571 31.0625 40.0704 30.0685 40.0704 28.8438V22.1875H44.789L48.4535 61.7256C48.5711 62.9814 48.1594 64.1884 47.2908 65.1203Z" fill="black"/>
</svg>
